<svg xmlns="http://www.w3.org/2000/svg" xmlns:xlink="http://www.w3.org/1999/xlink" width="512" zoomAndPan="magnify" viewBox="0 0 384 383.999986" height="512" preserveAspectRatio="xMidYMid meet" version="1.0"><defs><clipPath id="975d8e12b7"><path d="M 40 34.320312 L 384 34.320312 L 384 331 L 40 331 Z M 40 34.320312 " clip-rule="nonzero"/></clipPath></defs><g clip-path="url(#975d8e12b7)"><path fill="#ffffff" d="M 57.007812 170.960938 C 51.40625 165.433594 46.953125 160.0625 43.574219 154.839844 C 47.71875 133.117188 56.546875 113.082031 68.984375 95.808594 C 72.054688 99.800781 75.816406 103.871094 80.421875 108.089844 C 81.34375 108.9375 82.339844 109.78125 83.339844 110.625 C 71.363281 129.816406 63.917969 152.15625 62.382812 176.105469 C 60.460938 174.417969 58.621094 172.726562 56.929688 171.039062 Z M 62.152344 184.933594 C 62.152344 184.164062 62.152344 183.398438 62.152344 182.628906 C 60.234375 181.402344 58.238281 180.097656 56.394531 178.867188 C 51.019531 175.109375 46.109375 171.421875 41.65625 167.738281 C 41.195312 172.574219 40.886719 177.488281 40.886719 182.476562 C 40.886719 203.585938 45.339844 223.699219 53.324219 241.894531 C 53.476562 241.96875 53.628906 242.125 53.785156 242.199219 L 53.9375 240.820312 L 82.109375 257.167969 C 69.445312 236.058594 62.152344 211.339844 62.152344 184.933594 Z M 88.710938 102.640625 C 114.273438 67.175781 155.882812 44.144531 202.9375 44.144531 C 249.996094 44.144531 267.730469 56.042969 291.988281 75.851562 C 265.347656 50.132812 229.117188 34.320312 189.121094 34.320312 C 149.125 34.320312 108.824219 51.976562 81.878906 80.300781 C 80.960938 86.058594 82.648438 92.507812 86.640625 99.339844 C 87.253906 100.414062 87.945312 101.488281 88.710938 102.5625 Z M 87.636719 265.691406 C 84.71875 264.308594 81.804688 263.003906 78.964844 261.621094 C 71.285156 257.9375 64.148438 254.097656 57.390625 250.261719 C 93.546875 320.5 177.914062 349.671875 249.226562 317.96875 C 225.429688 326.257812 141.605469 342.6875 87.5625 265.691406 Z M 383.796875 218.097656 C 383.796875 218.097656 383.644531 234.675781 383.644531 235.214844 C 383.644531 240.511719 380.34375 239.972656 380.34375 239.972656 L 379.652344 287.644531 C 378.960938 292.789062 370.59375 293.480469 370.59375 293.480469 L 354.859375 294.476562 C 350.175781 302.460938 344.417969 302.84375 344.417969 302.84375 L 331.058594 302.84375 C 323.921875 302.84375 318.546875 294.246094 318.546875 294.246094 L 251.300781 294.476562 C 248.382812 306.453125 239.324219 306.53125 239.324219 306.53125 L 239.09375 306.53125 C 239.09375 306.53125 226.121094 306.605469 226.121094 306.605469 L 125.328125 272.214844 L 214.148438 288.875 C 213.226562 286.1875 212.613281 283.578125 212.382812 281.734375 C 211.691406 274.132812 211.304688 260.625 217.21875 251.949219 C 218.828125 249.570312 223.894531 245.425781 229.191406 245.117188 C 229.191406 245.117188 220.363281 241.894531 214.683594 250.335938 C 214.683594 250.335938 210.921875 254.097656 209.769531 269.988281 C 209.769531 269.988281 209.695312 276.898438 210 281.734375 C 207.929688 281.425781 203.167969 280.277344 203.167969 280.277344 C 201.25 247.34375 213.300781 241.816406 213.300781 241.816406 L 213.300781 231.914062 C 212.226562 231.605469 212.382812 230.609375 212.382812 230.609375 L 212.382812 224.007812 C 211.765625 224.007812 211.230469 223.851562 210.691406 223.625 C 210.460938 229.839844 210.386719 235.0625 210.386719 238.746094 C 198.179688 245.5 199.484375 275.976562 199.484375 275.976562 L 92.78125 246.730469 L 188.429688 250.492188 L 188.277344 234.523438 L 92.089844 219.246094 L 188.046875 209.652344 L 187.894531 195.066406 L 89.558594 193.300781 L 187.664062 172.882812 L 187.507812 158.679688 L 93.089844 168.660156 L 187.355469 140.179688 L 187.203125 123.367188 L 89.019531 143.25 L 197.027344 98.035156 C 200.40625 97.191406 203.859375 96.730469 207.316406 96.808594 L 297.4375 97.882812 C 303.195312 98.035156 307.417969 99.953125 308.105469 105.636719 L 221.132812 106.710938 C 219.289062 106.710938 217.753906 107.785156 217.0625 109.394531 C 218.753906 108.550781 220.289062 108.78125 220.289062 108.78125 L 333.671875 109.933594 C 365.222656 116.535156 368.828125 136.417969 368.828125 136.417969 C 375.046875 158.371094 378.730469 187.542969 378.730469 187.542969 C 380.652344 188.847656 381.417969 191.765625 381.417969 191.765625 L 381.1875 213.796875 C 382.800781 215.871094 383.796875 217.941406 383.796875 217.941406 Z M 270.492188 139.257812 C 271.949219 153.84375 273.484375 187.695312 273.484375 187.695312 C 298.433594 189.539062 371.285156 187.695312 371.285156 187.695312 C 368.597656 157.683594 364.222656 139.640625 364.222656 139.640625 L 270.570312 139.335938 Z M 370.59375 209.652344 L 367.371094 211.265625 L 301.199219 211.570312 L 290.757812 208.882812 L 300.355469 215.640625 L 367.140625 214.949219 L 370.59375 209.730469 Z M 365.527344 224.390625 L 304.882812 225.464844 L 295.210938 222.703125 L 303.578125 229.148438 L 365.21875 228 L 368.675781 222.777344 L 365.449219 224.390625 Z M 282.082031 223.007812 L 279.933594 221.472656 C 279.242188 221.011719 278.398438 221.859375 278.476562 222.703125 L 278.78125 235.367188 C 278.78125 236.289062 279.242188 237.058594 280.011719 237.515625 L 282.46875 239.054688 C 282.46875 239.054688 282.082031 223.394531 282.082031 223.085938 Z M 227.273438 123.445312 L 256.90625 124.441406 L 256.75 129.585938 L 234.335938 131.503906 L 254.523438 132.578125 C 257.980469 133.117188 259.4375 130.429688 259.4375 130.429688 L 259.589844 123.519531 C 259.132812 121.449219 256.75 121.679688 256.75 121.679688 L 227.273438 123.367188 Z M 230.113281 263.3125 C 230.496094 263.3125 230.804688 263.3125 231.113281 263.464844 C 229.578125 260.777344 227.65625 259.164062 225.507812 259.242188 C 221.132812 259.394531 217.832031 266.917969 218.214844 276.054688 C 218.523438 285.113281 222.359375 292.40625 226.8125 292.25 C 228.347656 292.25 229.652344 291.328125 230.804688 289.71875 C 227.425781 289.488281 224.511719 283.882812 224.28125 276.746094 C 223.972656 269.453125 226.660156 263.464844 230.113281 263.3125 Z M 218.675781 230.992188 L 218.675781 236.289062 C 218.675781 236.289062 238.636719 232.835938 245.621094 250.183594 C 245.925781 250.953125 245.160156 229.074219 218.675781 230.992188 Z M 258.515625 203.28125 L 211.84375 195.144531 L 251.53125 205.507812 L 251.378906 216.789062 L 215.683594 218.785156 L 258.285156 221.398438 L 258.441406 203.125 Z M 262.125 186.085938 L 261.664062 139.71875 L 220.980469 140.101562 L 220.75 166.125 C 220.75 166.125 220.363281 174.570312 226.660156 175.566406 Z M 287.609375 254.941406 L 265.964844 254.714844 C 265.042969 254.714844 264.273438 255.480469 264.273438 256.402344 L 264.273438 265.691406 C 264.199219 266.6875 264.964844 267.457031 265.964844 267.457031 L 298.359375 267.761719 C 298.359375 267.761719 298.894531 255.480469 287.609375 254.867188 Z M 367.832031 235.292969 L 364.605469 236.902344 L 307.722656 238.132812 L 298.050781 235.367188 L 306.957031 241.585938 L 364.222656 239.820312 L 367.832031 235.214844 Z M 378.039062 252.949219 L 375.429688 253.484375 C 375.429688 253.484375 368.214844 254.253906 368.136719 265.765625 L 376.199219 265.765625 C 377.042969 265.765625 377.65625 265.078125 377.734375 264.230469 Z M 379.882812 221.472656 C 379.882812 220.707031 379.113281 220.246094 378.425781 220.628906 L 376.429688 221.78125 C 375.8125 222.164062 375.429688 222.777344 375.429688 223.46875 L 375.277344 237.824219 C 379.421875 237.671875 379.652344 235.523438 379.652344 235.523438 L 379.804688 221.398438 Z M 379.882812 221.472656 " fill-opacity="1" fill-rule="nonzero"/></g><path fill="#7c3aed" d="M 78.273438 254.714844 C 85.488281 259.164062 93.394531 263.539062 101.761719 267.761719 C 94.394531 264.617188 87.253906 261.390625 80.421875 258.089844 C 69.519531 252.792969 59.386719 247.265625 50.484375 241.738281 C 18.320312 221.78125 0.203125 201.128906 5.039062 185.929688 C 8.03125 176.488281 19.625 170.5 37.125 167.890625 C 36.742188 171.578125 36.664062 175.261719 36.664062 179.097656 L 36.664062 179.789062 C 32.136719 182.9375 29.066406 186.851562 27.53125 191.304688 C 23.921875 202.511719 30.90625 216.332031 45.722656 230.378906 C 54.167969 238.4375 65.144531 246.730469 78.195312 254.636719 Z M 38.96875 159.753906 C 44.648438 164.972656 51.40625 170.117188 58.925781 175.414062 C 61.078125 176.871094 63.457031 178.410156 65.757812 179.867188 C 70.058594 182.476562 78.195312 187.007812 88.175781 190.613281 C 88.175781 190.613281 88.175781 190.613281 88.25 190.613281 C 76.890625 182.9375 67.140625 175.109375 59.464844 167.507812 C 51.019531 159.21875 45.03125 151.15625 41.886719 143.632812 C 38.96875 136.726562 38.277344 130.277344 40.351562 124.597656 C 42.5 118.683594 47.414062 113.925781 54.476562 110.472656 L 60.617188 99.878906 C 37.125 100.875 21.234375 106.863281 17.167969 118.148438 C 13.097656 129.433594 21.542969 144.171875 38.890625 159.753906 Z M 89.171875 95.886719 C 84.414062 87.75 82.878906 80.148438 85.179688 73.625 C 85.640625 72.242188 86.410156 70.859375 87.332031 69.632812 C 89.558594 66.175781 93.089844 63.335938 97.695312 61.109375 C 102.453125 57.503906 107.441406 54.125 112.664062 51.207031 C 86.5625 50.824219 68.523438 56.273438 64.378906 67.867188 C 62.152344 74.007812 64.070312 81.222656 69.289062 89.128906 C 72.589844 94.042969 77.199219 99.1875 82.953125 104.558594 C 84.183594 105.710938 85.566406 106.785156 86.871094 107.9375 C 90.785156 111.007812 104.527344 121.371094 119.113281 126.667969 C 119.113281 126.667969 119.1875 126.667969 119.265625 126.667969 C 105.292969 116.152344 94.777344 105.636719 89.097656 95.886719 Z M 89.171875 95.886719 " fill-opacity="1" fill-rule="nonzero"/></svg>