<svg xmlns="http://www.w3.org/2000/svg" xmlns:xlink="http://www.w3.org/1999/xlink" width="512" zoomAndPan="magnify" viewBox="0 0 384 383.999986" height="512" preserveAspectRatio="xMidYMid meet" version="1.0"><defs><clipPath id="885b15567d"><path d="M 207 287 L 265 287 L 265 344.609375 L 207 344.609375 Z M 207 287 " clip-rule="nonzero"/></clipPath><clipPath id="f2b31144f9"><path d="M 39 287 L 97 287 L 97 344.609375 L 39 344.609375 Z M 39 287 " clip-rule="nonzero"/></clipPath><clipPath id="3d11f01ab5"><path d="M 261 39.359375 L 383 39.359375 L 383 241 L 261 241 Z M 261 39.359375 " clip-rule="nonzero"/></clipPath></defs><g clip-path="url(#885b15567d)"><path fill="#7c3aed" d="M 236.007812 287.953125 C 220.351562 287.953125 207.667969 300.636719 207.667969 316.292969 C 207.667969 331.945312 220.359375 344.628906 236.007812 344.628906 C 251.652344 344.628906 264.34375 331.945312 264.34375 316.292969 C 264.34375 300.636719 251.660156 287.953125 236.007812 287.953125 Z M 235.769531 304.503906 L 236.007812 304.503906 C 242.519531 304.503906 247.796875 309.777344 247.796875 316.292969 C 247.796875 322.804688 242.519531 328.082031 236.007812 328.082031 C 229.492188 328.082031 224.21875 322.804688 224.21875 316.292969 C 224.21875 309.875 229.351562 304.625 235.769531 304.503906 Z M 235.769531 304.503906 " fill-opacity="1" fill-rule="nonzero"/></g><g clip-path="url(#f2b31144f9)"><path fill="#7c3aed" d="M 68.0625 287.953125 C 52.40625 287.953125 39.722656 300.636719 39.722656 316.292969 C 39.722656 331.945312 52.40625 344.628906 68.0625 344.628906 C 83.714844 344.640625 96.40625 331.960938 96.414062 316.308594 L 96.414062 316.292969 C 96.414062 300.636719 83.730469 287.953125 68.078125 287.953125 Z M 67.824219 304.503906 L 68.0625 304.503906 C 74.574219 304.503906 79.851562 309.777344 79.851562 316.292969 C 79.851562 322.804688 74.574219 328.082031 68.0625 328.082031 C 61.546875 328.082031 56.269531 322.804688 56.269531 316.292969 C 56.269531 309.875 61.398438 304.625 67.824219 304.503906 Z M 67.824219 304.503906 " fill-opacity="1" fill-rule="nonzero"/></g><path fill="#7c3aed" d="M 19.921875 175.5 C 9.566406 175.5 1.203125 183.84375 1.203125 194.199219 L 1.203125 294.289062 C 1.203125 304.644531 9.566406 312.988281 19.921875 312.988281 L 32.523438 312.988281 C 33.3125 304.785156 36.96875 296.855469 42.804688 291.019531 C 49.421875 284.402344 58.703125 280.570312 68.0625 280.570312 C 77.417969 280.570312 86.714844 284.402344 93.332031 291.019531 C 99.167969 296.855469 102.824219 304.785156 103.613281 312.988281 L 200.453125 312.988281 C 201.242188 304.785156 204.898438 296.855469 210.734375 291.019531 C 217.351562 284.402344 226.65625 280.570312 236.007812 280.570312 C 245.355469 280.570312 254.644531 284.402344 261.261719 291.019531 C 267.097656 296.855469 270.789062 304.785156 271.578125 312.988281 L 297.628906 312.988281 L 297.628906 283.347656 C 297.628906 268.367188 285.5625 256.328125 270.59375 256.328125 L 263.53125 256.328125 L 238.496094 205.972656 C 237.089844 203.144531 234.445312 201.117188 231.347656 200.5 L 185.105469 191.183594 C 183.65625 182.277344 176.050781 175.5 166.726562 175.5 Z M 189.238281 206.394531 L 189.257812 206.394531 C 189.488281 206.394531 189.742188 206.410156 189.96875 206.460938 L 225.691406 213.660156 C 226.828125 213.886719 227.796875 214.644531 228.316406 215.675781 L 247.660156 254.535156 C 247.945312 255.105469 248.035156 255.730469 247.980469 256.328125 L 185.460938 256.328125 L 185.460938 210.15625 C 185.453125 208.109375 187.191406 206.378906 189.238281 206.394531 Z M 189.238281 206.394531 " fill-opacity="1" fill-rule="nonzero"/><g clip-path="url(#3d11f01ab5)"><path fill="#7c3aed" d="M 280.234375 39.363281 C 269.886719 39.363281 261.53125 47.691406 261.53125 58.046875 L 261.53125 221.539062 C 261.53125 231.882812 269.886719 240.222656 280.234375 240.222656 L 364.097656 240.222656 C 374.441406 240.222656 382.796875 231.882812 382.796875 221.539062 L 382.796875 58.046875 C 382.796875 47.691406 374.441406 39.363281 364.097656 39.363281 Z M 306.65625 46.527344 L 337.6875 46.527344 C 338.902344 46.527344 339.875 47.5 339.875 48.714844 C 339.875 49.925781 338.894531 50.898438 337.6875 50.898438 L 306.65625 50.898438 C 305.441406 50.898438 304.472656 49.925781 304.472656 48.714844 C 304.472656 47.5 305.441406 46.527344 306.65625 46.527344 Z M 274.253906 59.078125 L 370.09375 59.078125 C 373.308594 59.078125 375.902344 61.671875 375.902344 64.890625 L 375.902344 202.058594 C 375.902344 205.277344 373.308594 207.851562 370.09375 207.851562 L 274.253906 207.851562 C 271.035156 207.851562 268.445312 205.277344 268.445312 202.058594 L 268.445312 64.890625 C 268.445312 61.671875 271.035156 59.078125 274.253906 59.078125 Z M 313.414062 218.335938 L 330.929688 218.335938 C 332.527344 218.335938 333.792969 219.601562 333.792969 221.199219 L 333.792969 224.910156 C 333.792969 226.503906 332.527344 227.769531 330.929688 227.769531 L 313.414062 227.769531 C 311.820312 227.769531 310.554688 226.503906 310.554688 224.910156 L 310.554688 221.199219 C 310.554688 219.613281 311.820312 218.335938 313.414062 218.335938 Z M 313.414062 218.335938 " fill-opacity="1" fill-rule="nonzero"/></g><path fill="#22d3ee" d="M 350.15625 120.449219 C 349.886719 120.449219 349.609375 120.464844 349.34375 120.480469 C 349.003906 120.5 348.664062 120.523438 348.324219 120.566406 C 346.035156 120.84375 343.792969 121.546875 341.769531 122.667969 C 337.71875 124.894531 334.621094 128.738281 333.265625 133.152344 C 331.820312 137.863281 332.363281 143.019531 334.046875 147.617188 C 335.851562 152.542969 338.871094 156.914062 342.175781 160.949219 C 344.078125 163.265625 346.074219 165.472656 348.171875 167.605469 C 348.761719 168.265625 349.6875 168.636719 350.5625 168.636719 C 351.4375 168.636719 352.359375 168.265625 352.949219 167.605469 C 355.050781 165.472656 357.039062 163.265625 358.929688 160.949219 C 362.234375 156.914062 365.265625 152.542969 367.078125 147.617188 C 368.75 143.019531 369.320312 137.863281 367.871094 133.152344 C 366.519531 128.738281 363.394531 124.894531 359.351562 122.667969 C 357.339844 121.546875 355.085938 120.84375 352.796875 120.566406 C 352.460938 120.523438 352.121094 120.507812 351.78125 120.480469 C 351.511719 120.464844 351.238281 120.457031 350.96875 120.449219 Z M 350.5625 127.511719 L 350.59375 127.511719 C 356.648438 127.527344 361.554688 132.441406 361.554688 138.503906 C 361.554688 144.574219 356.640625 149.496094 350.5625 149.496094 C 344.480469 149.496094 339.570312 144.585938 339.570312 138.503906 C 339.570312 132.425781 344.492188 127.511719 350.5625 127.511719 Z M 350.5625 127.511719 " fill-opacity="1" fill-rule="nonzero"/><path fill="#22d3ee" d="M 293.53125 85.03125 C 293.285156 85.03125 293.027344 85.046875 292.785156 85.0625 C 292.480469 85.082031 292.15625 85.105469 291.851562 85.148438 C 289.769531 85.398438 287.730469 86.03125 285.890625 87.046875 C 282.214844 89.074219 279.390625 92.566406 278.148438 96.582031 C 276.832031 100.867188 277.351562 105.5625 278.878906 109.742188 C 280.515625 114.226562 283.261719 118.175781 286.261719 121.835938 C 287.988281 123.9375 289.808594 125.96875 291.71875 127.902344 C 292.261719 128.5 293.078125 128.832031 293.886719 128.832031 C 294.691406 128.832031 295.515625 128.492188 296.054688 127.902344 C 297.960938 125.96875 299.78125 123.9375 301.507812 121.835938 C 304.507812 118.167969 307.246094 114.21875 308.894531 109.742188 C 310.417969 105.5625 310.941406 100.875 309.621094 96.582031 C 308.382812 92.566406 305.558594 89.074219 301.878906 87.046875 C 300.042969 86.03125 298.007812 85.410156 295.917969 85.148438 C 295.613281 85.113281 295.289062 85.089844 294.988281 85.0625 C 294.742188 85.046875 294.5 85.039062 294.257812 85.03125 Z M 293.886719 91.449219 L 293.917969 91.449219 C 299.425781 91.464844 303.878906 95.945312 303.878906 101.441406 C 303.878906 106.957031 299.402344 111.4375 293.886719 111.4375 C 288.371094 111.4375 283.890625 106.957031 283.890625 101.441406 C 283.890625 95.925781 288.359375 91.449219 293.886719 91.449219 Z M 293.886719 91.449219 " fill-opacity="1" fill-rule="nonzero"/><path fill="#22d3ee" d="M 99.160156 139.09375 C 92.535156 139.09375 87.167969 144.480469 87.167969 151.105469 C 87.167969 157.730469 92.535156 163.089844 99.160156 163.101562 C 105.785156 163.101562 111.164062 157.730469 111.171875 151.105469 C 111.179688 144.480469 105.804688 139.101562 99.179688 139.09375 C 99.167969 139.09375 99.160156 139.09375 99.160156 139.09375 Z M 99.160156 139.09375 " fill-opacity="1" fill-rule="nonzero"/><path fill="#22d3ee" d="M 293.511719 130.792969 C 292.246094 130.792969 291.101562 131.730469 290.917969 133.03125 C 290.277344 137.367188 291.527344 141.886719 294.351562 145.261719 C 296.339844 147.628906 298.90625 149.179688 301.621094 150.273438 C 301.835938 153.59375 304.613281 156.171875 307.941406 156.171875 C 310.085938 156.171875 312.078125 155.085938 313.242188 153.292969 C 313.457031 153.371094 313.738281 153.394531 313.9375 153.472656 C 314.933594 153.890625 315.828125 154.46875 316.425781 155.128906 C 317.015625 155.78125 317.386719 156.578125 317.441406 157.246094 C 317.472656 157.792969 317.335938 158.496094 317.03125 159.230469 C 316.726562 159.96875 316.234375 160.808594 315.679688 161.738281 C 315.125 162.667969 314.5 163.742188 314.003906 164.972656 C 313.492188 166.214844 313.101562 167.671875 313.226562 169.273438 C 313.347656 170.914062 313.988281 172.40625 314.863281 173.628906 C 315.738281 174.851562 316.851562 175.8125 318.0625 176.523438 C 320.464844 177.929688 323.113281 178.335938 325.417969 178.570312 C 332.886719 179.324219 340.492188 178.078125 347.351562 175.066406 C 348.367188 174.695312 349.042969 173.722656 349.042969 172.648438 C 349.042969 171.253906 347.90625 170.054688 346.484375 170.054688 C 346.042969 170.054688 345.6875 170.175781 345.363281 170.324219 C 339.292969 173.011719 332.53125 174.097656 325.921875 173.421875 C 323.902344 173.21875 322.054688 172.820312 320.699219 172.03125 C 320.042969 171.652344 319.433594 171.148438 319.042969 170.59375 C 318.652344 170.054688 318.4375 169.4375 318.402344 168.902344 C 318.367188 168.371094 318.507812 167.660156 318.808594 166.914062 C 319.113281 166.152344 319.589844 165.335938 320.128906 164.425781 C 320.675781 163.515625 321.332031 162.441406 321.835938 161.191406 C 322.347656 159.933594 322.703125 158.46875 322.582031 156.871094 C 322.425781 154.828125 321.523438 153.011719 320.257812 151.625 C 319.019531 150.253906 317.484375 149.300781 315.9375 148.660156 C 315.28125 148.382812 314.65625 148.304688 314.003906 148.113281 C 313.242188 145.398438 310.769531 143.515625 307.941406 143.507812 L 307.925781 143.507812 C 306.261719 143.507812 304.65625 144.175781 303.46875 145.355469 C 301.449219 144.496094 299.601562 143.4375 298.316406 141.921875 C 296.503906 139.753906 295.644531 136.648438 296.042969 133.820312 L 296.007812 133.890625 C 296.113281 133.535156 296.070312 133.363281 296.070312 133.40625 C 296.070312 132.007812 294.933594 130.804688 293.511719 130.792969 Z M 293.511719 130.792969 " fill-opacity="1" fill-rule="nonzero"/><path fill="#22d3ee" d="M 99.089844 109.355469 C 99.046875 109.355469 98.976562 109.375 98.933594 109.375 C 89.691406 109.363281 80.652344 112.132812 73.003906 117.316406 C 73.003906 117.316406 72.996094 117.324219 72.988281 117.335938 C 70.976562 118.566406 69.761719 120.777344 69.75 123.144531 C 69.734375 126.917969 72.769531 129.96875 76.542969 129.988281 C 78.113281 129.996094 79.648438 129.484375 80.863281 128.515625 C 80.863281 128.515625 80.871094 128.503906 80.878906 128.496094 C 86.230469 124.933594 92.507812 123.042969 98.933594 123.058594 C 98.96875 123.058594 99.011719 123.058594 99.054688 123.074219 C 99.074219 123.066406 99.101562 123.066406 99.125 123.058594 C 99.132812 123.058594 99.132812 123.09375 99.144531 123.09375 C 105.542969 123.152344 111.789062 125.078125 117.078125 128.6875 C 117.078125 128.6875 117.085938 128.695312 117.09375 128.703125 C 118.300781 129.683594 119.84375 130.171875 121.414062 130.179688 C 125.1875 130.195312 128.257812 127.195312 128.273438 123.421875 C 128.28125 121.054688 127.070312 118.792969 125.074219 117.542969 C 117.46875 112.289062 108.449219 109.453125 99.210938 109.382812 C 99.144531 109.375 99.109375 109.355469 99.089844 109.355469 Z M 99.089844 109.355469 " fill-opacity="1" fill-rule="nonzero"/><path fill="#22d3ee" d="M 99.195312 80.511719 C 82.984375 80.441406 67.246094 85.621094 54.304688 95.175781 C 52.457031 96.539062 50.699219 98.003906 48.972656 99.546875 C 48.964844 99.554688 48.957031 99.554688 48.9375 99.566406 C 47.429688 100.847656 46.578125 102.738281 46.5625 104.734375 C 46.542969 108.507812 49.578125 111.558594 53.351562 111.578125 C 55.199219 111.585938 56.976562 110.882812 58.261719 109.582031 C 58.261719 109.582031 58.269531 109.574219 58.277344 109.5625 C 69.414062 99.730469 83.765625 94.292969 98.621094 94.230469 C 98.789062 94.230469 98.960938 94.230469 99.132812 94.230469 C 99.300781 94.230469 99.457031 94.230469 99.628906 94.230469 C 114.484375 94.421875 128.777344 99.980469 139.824219 109.917969 C 139.824219 109.929688 139.835938 109.9375 139.84375 109.953125 C 141.109375 111.273438 142.914062 111.992188 144.753906 112 C 148.523438 112.019531 151.578125 108.984375 151.59375 105.210938 C 151.601562 103.222656 150.753906 101.289062 149.253906 99.988281 C 135.550781 87.527344 117.71875 80.597656 99.195312 80.511719 Z M 99.195312 80.511719 " fill-opacity="1" fill-rule="nonzero"/><path fill="#22d3ee" d="M 98.570312 51.621094 C 74.746094 51.691406 51.78125 59.949219 33.441406 74.832031 C 30.820312 76.957031 28.304688 79.226562 25.886719 81.621094 C 24.507812 82.894531 23.726562 84.726562 23.71875 86.617188 C 23.710938 90.390625 26.746094 93.441406 30.507812 93.460938 C 32.460938 93.46875 34.359375 92.652344 35.660156 91.203125 C 35.660156 91.203125 35.667969 91.195312 35.675781 91.1875 C 52.632812 74.519531 75.492188 65.230469 99.265625 65.34375 C 123.035156 65.457031 145.828125 74.960938 162.632812 91.785156 C 163.917969 93.242188 165.816406 94.066406 167.769531 94.074219 C 171.542969 94.09375 174.59375 91.046875 174.613281 87.285156 C 174.621094 85.394531 173.882812 83.582031 172.511719 82.289062 C 172.511719 82.28125 172.503906 82.273438 172.496094 82.253906 C 153.304688 62.949219 127.320312 51.988281 100.097656 51.667969 C 99.835938 51.667969 99.578125 51.648438 99.332031 51.648438 C 99.074219 51.640625 98.8125 51.621094 98.570312 51.621094 Z M 98.570312 51.621094 " fill-opacity="1" fill-rule="nonzero"/></svg>