<svg xmlns="http://www.w3.org/2000/svg" xmlns:xlink="http://www.w3.org/1999/xlink" width="512" zoomAndPan="magnify" viewBox="0 0 384 383.999986" height="512" preserveAspectRatio="xMidYMid meet" version="1.0"><path fill="#a5dadb" d="M 279.003906 105.367188 C 280.421875 106.785156 281.808594 108.242188 283.15625 109.730469 C 284.507812 111.21875 285.820312 112.738281 287.09375 114.292969 C 288.367188 115.847656 289.605469 117.429688 290.800781 119.042969 C 292 120.65625 293.15625 122.300781 294.269531 123.96875 C 295.386719 125.640625 296.460938 127.335938 297.496094 129.0625 C 298.527344 130.785156 299.519531 132.53125 300.464844 134.304688 C 301.414062 136.074219 302.316406 137.871094 303.175781 139.6875 C 304.035156 141.503906 304.847656 143.339844 305.617188 145.195312 C 306.386719 147.050781 307.109375 148.925781 307.785156 150.816406 C 308.464844 152.710938 309.09375 154.617188 309.675781 156.539062 C 310.257812 158.460938 310.796875 160.398438 311.285156 162.347656 C 311.773438 164.296875 312.210938 166.257812 312.605469 168.226562 C 312.996094 170.199219 313.339844 172.175781 313.632812 174.164062 C 313.929688 176.152344 314.175781 178.144531 314.371094 180.144531 C 314.570312 182.144531 314.71875 184.148438 314.816406 186.15625 C 314.914062 188.160156 314.964844 190.167969 314.964844 192.179688 C 314.964844 194.1875 314.914062 196.195312 314.816406 198.203125 C 314.71875 200.210938 314.570312 202.214844 314.371094 204.214844 C 314.175781 206.210938 313.929688 208.207031 313.636719 210.195312 C 313.339844 212.179688 312.996094 214.160156 312.605469 216.132812 C 312.214844 218.101562 311.773438 220.0625 311.285156 222.011719 C 310.796875 223.960938 310.261719 225.894531 309.675781 227.820312 C 309.09375 229.742188 308.464844 231.648438 307.789062 233.539062 C 307.109375 235.433594 306.386719 237.304688 305.617188 239.164062 C 304.851562 241.019531 304.035156 242.855469 303.175781 244.671875 C 302.316406 246.488281 301.414062 248.28125 300.46875 250.054688 C 299.519531 251.828125 298.53125 253.574219 297.496094 255.296875 C 296.464844 257.019531 295.390625 258.71875 294.273438 260.390625 C 293.15625 262.058594 292 263.703125 290.804688 265.316406 C 289.605469 266.929688 288.371094 268.511719 287.097656 270.066406 C 285.820312 271.621094 284.511719 273.140625 283.160156 274.628906 C 281.8125 276.117188 280.425781 277.574219 279.003906 278.992188 C 277.585938 280.414062 276.128906 281.800781 274.640625 283.148438 C 273.152344 284.5 271.632812 285.8125 270.078125 287.085938 C 268.523438 288.359375 266.941406 289.597656 265.328125 290.792969 C 263.714844 291.988281 262.070312 293.144531 260.402344 294.261719 C 258.730469 295.378906 257.035156 296.453125 255.308594 297.488281 C 253.585938 298.519531 251.839844 299.511719 250.066406 300.457031 C 248.292969 301.402344 246.5 302.308594 244.683594 303.167969 C 242.867188 304.027344 241.03125 304.839844 239.175781 305.609375 C 237.320312 306.378906 235.445312 307.101562 233.554688 307.777344 C 231.660156 308.453125 229.753906 309.085938 227.832031 309.667969 C 225.910156 310.25 223.972656 310.785156 222.023438 311.273438 C 220.074219 311.761719 218.113281 312.203125 216.144531 312.59375 C 214.171875 312.988281 212.195312 313.332031 210.207031 313.625 C 208.21875 313.921875 206.226562 314.167969 204.226562 314.363281 C 202.226562 314.5625 200.222656 314.707031 198.214844 314.808594 C 196.210938 314.90625 194.203125 314.953125 192.191406 314.953125 C 190.183594 314.953125 188.175781 314.90625 186.167969 314.808594 C 184.160156 314.707031 182.15625 314.5625 180.15625 314.363281 C 178.160156 314.167969 176.164062 313.921875 174.175781 313.625 C 172.191406 313.332031 170.210938 312.988281 168.238281 312.597656 C 166.269531 312.203125 164.308594 311.765625 162.359375 311.277344 C 160.410156 310.789062 158.476562 310.253906 156.550781 309.667969 C 154.628906 309.085938 152.722656 308.457031 150.832031 307.777344 C 148.9375 307.101562 147.066406 306.378906 145.207031 305.609375 C 143.351562 304.839844 141.515625 304.027344 139.699219 303.167969 C 137.882812 302.308594 136.089844 301.40625 134.316406 300.460938 C 132.542969 299.511719 130.796875 298.523438 129.074219 297.488281 C 127.351562 296.457031 125.652344 295.382812 123.980469 294.265625 C 122.3125 293.148438 120.667969 291.992188 119.054688 290.796875 C 117.441406 289.597656 115.859375 288.363281 114.304688 287.089844 C 112.75 285.8125 111.230469 284.5 109.742188 283.152344 C 108.253906 281.800781 106.796875 280.417969 105.378906 278.996094 C 103.957031 277.574219 102.570312 276.121094 101.222656 274.632812 C 99.871094 273.144531 98.558594 271.621094 97.285156 270.070312 C 96.011719 268.515625 94.773438 266.933594 93.578125 265.320312 C 92.382812 263.707031 91.222656 262.0625 90.109375 260.390625 C 88.992188 258.722656 87.917969 257.023438 86.882812 255.300781 C 85.851562 253.578125 84.859375 251.832031 83.914062 250.058594 C 82.964844 248.285156 82.0625 246.492188 81.203125 244.675781 C 80.34375 242.859375 79.53125 241.023438 78.761719 239.167969 C 77.992188 237.308594 77.269531 235.4375 76.59375 233.542969 C 75.917969 231.652344 75.285156 229.746094 74.703125 227.824219 C 74.121094 225.898438 73.585938 223.964844 73.097656 222.015625 C 72.609375 220.066406 72.167969 218.105469 71.777344 216.136719 C 71.382812 214.164062 71.039062 212.183594 70.746094 210.199219 C 70.449219 208.210938 70.203125 206.21875 70.007812 204.21875 C 69.808594 202.21875 69.664062 200.214844 69.5625 198.207031 C 69.464844 196.199219 69.414062 194.191406 69.414062 192.183594 C 69.414062 190.175781 69.464844 188.164062 69.5625 186.160156 C 69.664062 184.152344 69.808594 182.148438 70.007812 180.148438 C 70.203125 178.148438 70.449219 176.15625 70.746094 174.167969 C 71.039062 172.179688 71.382812 170.203125 71.773438 168.230469 C 72.167969 166.261719 72.605469 164.300781 73.09375 162.351562 C 73.582031 160.402344 74.117188 158.464844 74.703125 156.542969 C 75.285156 154.621094 75.914062 152.714844 76.59375 150.820312 C 77.269531 148.929688 77.992188 147.054688 78.761719 145.199219 C 79.53125 143.34375 80.34375 141.507812 81.203125 139.691406 C 82.0625 137.875 82.964844 136.078125 83.910156 134.308594 C 84.859375 132.535156 85.847656 130.789062 86.882812 129.066406 C 87.914062 127.339844 88.988281 125.644531 90.105469 123.972656 C 91.222656 122.300781 92.378906 120.660156 93.574219 119.046875 C 94.773438 117.433594 96.007812 115.847656 97.28125 114.296875 C 98.558594 112.742188 99.871094 111.222656 101.21875 109.734375 C 102.566406 108.242188 103.953125 106.789062 105.375 105.367188 C 106.792969 103.949219 108.25 102.5625 109.738281 101.214844 C 111.226562 99.863281 112.746094 98.550781 114.300781 97.277344 C 115.855469 96.003906 117.4375 94.765625 119.050781 93.570312 C 120.664062 92.371094 122.308594 91.214844 123.976562 90.097656 C 125.648438 88.984375 127.347656 87.910156 129.070312 86.875 C 130.792969 85.84375 132.539062 84.851562 134.3125 83.90625 C 136.085938 82.957031 137.878906 82.054688 139.695312 81.195312 C 141.511719 80.335938 143.347656 79.523438 145.203125 78.753906 C 147.0625 77.984375 148.933594 77.261719 150.828125 76.585938 C 152.71875 75.90625 154.625 75.277344 156.546875 74.695312 C 158.472656 74.109375 160.40625 73.574219 162.355469 73.085938 C 164.304688 72.597656 166.265625 72.160156 168.234375 71.765625 C 170.207031 71.375 172.183594 71.03125 174.171875 70.738281 C 176.160156 70.441406 178.152344 70.195312 180.152344 70 C 182.152344 69.800781 184.15625 69.652344 186.164062 69.554688 C 188.171875 69.457031 190.179688 69.40625 192.1875 69.40625 C 194.195312 69.40625 196.203125 69.457031 198.210938 69.554688 C 200.21875 69.652344 202.222656 69.800781 204.222656 70 C 206.222656 70.195312 208.214844 70.441406 210.203125 70.734375 C 212.191406 71.03125 214.167969 71.375 216.140625 71.765625 C 218.109375 72.15625 220.070312 72.597656 222.019531 73.085938 C 223.96875 73.574219 225.90625 74.109375 227.828125 74.691406 C 229.75 75.277344 231.65625 75.90625 233.550781 76.582031 C 235.441406 77.261719 237.316406 77.984375 239.171875 78.753906 C 241.027344 79.519531 242.863281 80.335938 244.679688 81.195312 C 246.496094 82.054688 248.292969 82.957031 250.0625 83.902344 C 251.835938 84.851562 253.582031 85.839844 255.304688 86.875 C 257.03125 87.90625 258.726562 88.980469 260.398438 90.097656 C 262.066406 91.214844 263.710938 92.371094 265.324219 93.566406 C 266.9375 94.765625 268.523438 96 270.074219 97.273438 C 271.628906 98.550781 273.148438 99.859375 274.636719 101.210938 C 276.125 102.558594 277.582031 103.945312 279.003906 105.367188 Z M 279.003906 105.367188 " fill-opacity="1" fill-rule="nonzero"/><path fill="#81cacc" d="M 97.074219 115.667969 L 96.722656 114.996094 C 97.023438 114.621094 97.320312 114.25 97.628906 113.878906 Z M 97.074219 115.667969 " fill-opacity="1" fill-rule="evenodd"/><path fill="#aadbdd" d="M 69.421875 192.550781 L 72.179688 197.394531 L 70.078125 204.96875 C 69.65625 200.886719 69.433594 196.742188 69.421875 192.550781 Z M 69.421875 192.550781 " fill-opacity="1" fill-rule="evenodd"/><path fill="#a2d7da" d="M 72.179688 197.394531 L 69.421875 192.550781 C 69.421875 192.425781 69.417969 192.304688 69.417969 192.179688 C 69.417969 190.222656 69.46875 188.277344 69.558594 186.339844 Z M 72.179688 197.394531 " fill-opacity="1" fill-rule="evenodd"/><path fill="#c4e6e7" d="M 109.675781 283.089844 L 138.457031 277.75 L 135.136719 300.910156 C 125.894531 296.050781 117.339844 290.050781 109.675781 283.089844 Z M 109.675781 283.089844 " fill-opacity="1" fill-rule="evenodd"/><path fill="#bde4e4" d="M 98.171875 271.128906 L 119.296875 188.308594 L 138.457031 277.75 L 109.675781 283.089844 C 105.578125 279.367188 101.738281 275.367188 98.171875 271.128906 Z M 98.171875 271.128906 " fill-opacity="1" fill-rule="evenodd"/><path fill="#a8dbdc" d="M 119.296875 188.308594 L 72.984375 162.722656 C 73.699219 159.820312 74.519531 156.957031 75.433594 154.136719 L 121.980469 143.816406 Z M 119.296875 188.308594 " fill-opacity="1" fill-rule="evenodd"/><path fill="#86cccd" d="M 96.722656 114.992188 L 97.074219 115.667969 L 96.058594 115.816406 C 96.277344 115.542969 96.5 115.269531 96.722656 114.992188 Z M 96.722656 114.992188 " fill-opacity="1" fill-rule="evenodd"/><path fill="#92d1d3" d="M 96.058594 115.816406 L 97.074219 115.667969 L 89.921875 124.242188 C 91.851562 121.34375 93.898438 118.535156 96.058594 115.816406 Z M 96.058594 115.816406 " fill-opacity="1" fill-rule="evenodd"/><path fill="#9bd4d7" d="M 89.921875 124.242188 L 97.074219 115.667969 L 121.980469 143.816406 L 75.433594 154.136719 C 78.914062 143.457031 83.816406 133.414062 89.921875 124.242188 Z M 89.921875 124.242188 " fill-opacity="1" fill-rule="evenodd"/><path fill="#aadbdd" d="M 72.179688 197.394531 L 69.558594 186.339844 C 69.9375 178.238281 71.109375 170.339844 72.984375 162.722656 L 119.296875 188.308594 Z M 72.179688 197.394531 " fill-opacity="1" fill-rule="evenodd"/><path fill="#b9e2e3" d="M 73.273438 222.824219 L 119.296875 188.308594 L 98.171875 271.128906 C 86.542969 257.292969 77.90625 240.863281 73.273438 222.824219 Z M 73.273438 222.824219 " fill-opacity="1" fill-rule="evenodd"/><path fill="#b3dfe0" d="M 70.078125 204.96875 L 72.179688 197.394531 L 119.296875 188.308594 L 73.273438 222.820312 C 71.785156 217.027344 70.707031 211.0625 70.078125 204.96875 Z M 70.078125 204.96875 " fill-opacity="1" fill-rule="evenodd"/><path fill="#bce3e4" d="M 169.097656 237.796875 L 119.296875 188.308594 L 152.238281 178.773438 Z M 169.097656 237.796875 " fill-opacity="1" fill-rule="evenodd"/><path fill="#a5dadb" d="M 152.238281 178.773438 L 121.980469 143.816406 L 143.054688 107.492188 Z M 152.238281 178.773438 " fill-opacity="1" fill-rule="evenodd"/><path fill="#b2dee0" d="M 119.296875 188.308594 L 121.980469 143.816406 L 152.238281 178.773438 Z M 119.296875 188.308594 " fill-opacity="1" fill-rule="evenodd"/><path fill="#9ad4d6" d="M 238.820312 162.882812 L 214.304688 118.847656 L 256.636719 87.671875 C 258.402344 88.761719 260.132812 89.894531 261.835938 91.070312 Z M 238.820312 162.882812 " fill-opacity="1" fill-rule="evenodd"/><path fill="#8acdd0" d="M 97.074219 115.667969 L 97.628906 113.878906 C 103.773438 106.464844 110.777344 99.78125 118.488281 93.988281 L 143.054688 107.492188 Z M 97.074219 115.667969 " fill-opacity="1" fill-rule="evenodd"/><path fill="#97d4d5" d="M 121.980469 143.816406 L 97.074219 115.667969 L 143.054688 107.492188 Z M 121.980469 143.816406 " fill-opacity="1" fill-rule="evenodd"/><path fill="#86cccd" d="M 143.054688 107.492188 L 118.488281 93.988281 C 125.957031 88.371094 134.089844 83.59375 142.746094 79.78125 Z M 143.054688 107.492188 " fill-opacity="1" fill-rule="evenodd"/><path fill="#c0e4e5" d="M 138.457031 277.753906 L 119.296875 188.308594 L 169.097656 237.796875 Z M 138.457031 277.753906 " fill-opacity="1" fill-rule="evenodd"/><path fill="#bbe2e4" d="M 226.949219 225.992188 L 194.765625 204.203125 L 238.820312 162.882812 Z M 226.949219 225.992188 " fill-opacity="1" fill-rule="evenodd"/><path fill="#c6e7e8" d="M 135.136719 300.910156 L 138.457031 277.753906 L 160.765625 310.890625 C 151.777344 308.511719 143.195312 305.148438 135.136719 300.910156 Z M 135.136719 300.910156 " fill-opacity="1" fill-rule="evenodd"/><path fill="#addcde" d="M 194.765625 204.203125 L 214.304688 118.84375 L 238.820312 162.882812 Z M 194.765625 204.203125 " fill-opacity="1" fill-rule="evenodd"/><path fill="#86cccd" d="M 143.054688 107.492188 L 142.746094 79.78125 C 146.996094 77.90625 151.375 76.261719 155.859375 74.875 L 196.296875 83.429688 Z M 143.054688 107.492188 " fill-opacity="1" fill-rule="evenodd"/><path fill="#bde4e4" d="M 169.097656 237.796875 L 152.238281 178.773438 L 194.765625 204.203125 Z M 169.097656 237.796875 " fill-opacity="1" fill-rule="evenodd"/><path fill="#c8e7e9" d="M 200.128906 312.707031 L 138.457031 277.753906 L 169.097656 237.796875 Z M 200.128906 312.707031 " fill-opacity="1" fill-rule="evenodd"/><path fill="#cae9ea" d="M 160.765625 310.886719 L 138.457031 277.75 L 200.128906 312.707031 L 195.859375 314.894531 C 194.640625 314.933594 193.417969 314.957031 192.191406 314.957031 C 181.328125 314.957031 170.796875 313.539062 160.765625 310.886719 Z M 160.765625 310.886719 " fill-opacity="1" fill-rule="evenodd"/><path fill="#b2dee0" d="M 194.765625 204.203125 L 152.238281 178.773438 L 214.304688 118.84375 Z M 194.765625 204.203125 " fill-opacity="1" fill-rule="evenodd"/><path fill="#a2d7da" d="M 152.238281 178.773438 L 143.054688 107.492188 L 214.304688 118.84375 Z M 152.238281 178.773438 " fill-opacity="1" fill-rule="evenodd"/><path fill="#90d1d3" d="M 214.304688 118.84375 L 143.054688 107.492188 L 196.296875 83.429688 Z M 214.304688 118.84375 " fill-opacity="1" fill-rule="evenodd"/><path fill="#d2ecec" d="M 195.859375 314.894531 L 200.128906 312.707031 L 201.074219 314.632812 C 199.34375 314.757812 197.605469 314.84375 195.859375 314.894531 Z M 195.859375 314.894531 " fill-opacity="1" fill-rule="evenodd"/><path fill="#cceaeb" d="M 200.128906 312.707031 L 169.097656 237.796875 L 223.496094 299.085938 Z M 200.128906 312.707031 " fill-opacity="1" fill-rule="evenodd"/><path fill="#c8e7e9" d="M 223.496094 299.085938 L 169.097656 237.796875 L 226.949219 225.992188 Z M 223.496094 299.085938 " fill-opacity="1" fill-rule="evenodd"/><path fill="#d4edee" d="M 201.074219 314.632812 L 200.128906 312.707031 L 223.496094 299.085938 L 222.082031 311.285156 C 215.285156 312.984375 208.265625 314.117188 201.074219 314.632812 Z M 201.074219 314.632812 " fill-opacity="1" fill-rule="evenodd"/><path fill="#c0e4e5" d="M 169.097656 237.796875 L 194.765625 204.203125 L 226.949219 225.992188 Z M 169.097656 237.796875 " fill-opacity="1" fill-rule="evenodd"/><path fill="#8acdd0" d="M 214.304688 118.84375 L 196.296875 83.429688 L 246.589844 82.097656 C 250.035156 83.800781 253.386719 85.660156 256.636719 87.671875 Z M 214.304688 118.84375 " fill-opacity="1" fill-rule="evenodd"/><path fill="#cae9ea" d="M 223.496094 299.085938 L 226.949219 225.992188 L 262.953125 249.601562 Z M 223.496094 299.085938 " fill-opacity="1" fill-rule="evenodd"/><path fill="#81cacc" d="M 196.296875 83.429688 L 155.859375 74.875 C 157.460938 74.378906 159.078125 73.917969 160.710938 73.488281 L 241.691406 79.804688 C 243.34375 80.53125 244.976562 81.296875 246.589844 82.09375 Z M 196.296875 83.429688 " fill-opacity="1" fill-rule="evenodd"/><path fill="#c9e8e9" d="M 279.785156 278.199219 L 262.953125 249.601562 L 287.855469 222.363281 L 291.429688 264.46875 C 287.882812 269.328125 283.988281 273.917969 279.785156 278.199219 Z M 279.785156 278.199219 " fill-opacity="1" fill-rule="evenodd"/><path fill="#c3e5e7" d="M 262.953125 249.601562 L 226.949219 225.992188 L 287.855469 222.363281 Z M 262.953125 249.601562 " fill-opacity="1" fill-rule="evenodd"/><path fill="#aadbdd" d="M 287.855469 222.363281 L 238.820312 162.882812 L 291.222656 119.609375 C 293.207031 122.316406 295.085938 125.105469 296.851562 127.972656 Z M 287.855469 222.363281 " fill-opacity="1" fill-rule="evenodd"/><path fill="#97d4d5" d="M 238.820312 162.882812 L 261.835938 91.070312 C 273.152344 98.878906 283.09375 108.539062 291.222656 119.609375 Z M 238.820312 162.882812 " fill-opacity="1" fill-rule="evenodd"/><path fill="#d2ecec" d="M 249.554688 300.75 L 223.496094 299.085938 L 262.953125 249.601562 L 279.785156 278.199219 C 270.964844 287.179688 260.773438 294.808594 249.554688 300.75 Z M 249.554688 300.75 " fill-opacity="1" fill-rule="evenodd"/><path fill="#b9e2e3" d="M 226.949219 225.992188 L 238.820312 162.882812 L 287.855469 222.363281 Z M 226.949219 225.992188 " fill-opacity="1" fill-rule="evenodd"/><path fill="#daeff0" d="M 222.082031 311.285156 L 223.496094 299.085938 L 249.554688 300.75 C 240.949219 305.304688 231.742188 308.867188 222.082031 311.285156 Z M 222.082031 311.285156 " fill-opacity="1" fill-rule="evenodd"/><path fill="#79c7c9" d="M 211.136719 70.863281 L 168.953125 71.613281 C 176.480469 70.171875 184.246094 69.40625 192.191406 69.40625 C 198.632812 69.40625 204.960938 69.90625 211.136719 70.863281 Z M 211.136719 70.863281 " fill-opacity="1" fill-rule="evenodd"/><path fill="#81cacc" d="M 241.691406 79.804688 L 160.710938 73.488281 C 163.421875 72.769531 166.171875 72.148438 168.953125 71.613281 L 211.136719 70.863281 C 221.839844 72.523438 232.089844 75.566406 241.691406 79.804688 Z M 241.691406 79.804688 " fill-opacity="1" fill-rule="evenodd"/><path fill="#a7dadc" d="M 287.855469 222.363281 L 296.851562 127.972656 C 308.097656 146.265625 314.675781 167.726562 314.945312 190.707031 Z M 287.855469 222.363281 " fill-opacity="1" fill-rule="evenodd"/><path fill="#addcdd" d="M 287.855469 222.363281 L 314.945312 190.707031 C 314.953125 191.199219 314.964844 191.6875 314.964844 192.179688 C 314.964844 200.511719 314.132812 208.644531 312.550781 216.507812 Z M 287.855469 222.363281 " fill-opacity="1" fill-rule="evenodd"/><path fill="#c6e7e8" d="M 291.429688 264.46875 L 287.855469 222.363281 L 305.933594 238.460938 C 302.148438 247.753906 297.261719 256.476562 291.429688 264.46875 Z M 291.429688 264.46875 " fill-opacity="1" fill-rule="evenodd"/><path fill="#bbe2e4" d="M 305.933594 238.460938 L 287.855469 222.363281 L 312.550781 216.507812 C 311.023438 224.101562 308.792969 231.445312 305.933594 238.460938 Z M 305.933594 238.460938 " fill-opacity="1" fill-rule="evenodd"/><path fill="#556d6e" d="M 192.191406 65.574219 C 227.152344 65.574219 258.804688 79.746094 281.714844 102.65625 C 304.628906 125.566406 318.796875 157.21875 318.796875 192.179688 C 318.796875 227.140625 304.628906 258.792969 281.714844 281.703125 C 258.804688 304.617188 227.152344 318.789062 192.191406 318.789062 C 157.230469 318.789062 125.578125 304.617188 102.667969 281.703125 C 79.757812 258.792969 65.585938 227.140625 65.585938 192.179688 C 65.585938 157.21875 79.757812 125.570312 102.667969 102.65625 C 125.578125 79.746094 157.230469 65.574219 192.191406 65.574219 Z M 276.289062 108.082031 C 254.769531 86.558594 225.035156 73.25 192.191406 73.25 C 159.347656 73.25 129.617188 86.558594 108.09375 108.082031 C 86.570312 129.605469 73.257812 159.339844 73.257812 192.179688 C 73.257812 225.023438 86.570312 254.757812 108.09375 276.28125 C 129.617188 297.800781 159.347656 311.113281 192.191406 311.113281 C 225.035156 311.113281 254.769531 297.800781 276.289062 276.28125 C 297.8125 254.757812 311.125 225.023438 311.125 192.179688 C 311.125 159.339844 297.8125 129.605469 276.289062 108.082031 Z M 276.289062 108.082031 " fill-opacity="1" fill-rule="nonzero"/><path fill="#556d6e" d="M 241.6875 187.328125 L 254.851562 210.253906 L 228.617188 210.253906 L 228.617188 187.328125 Z M 241.6875 187.328125 " fill-opacity="1" fill-rule="evenodd"/><path fill="#556d6e" d="M 219.410156 177.863281 L 243.78125 177.863281 C 245.375 177.863281 246.859375 178.714844 247.660156 180.089844 L 265.859375 211.277344 C 266.257812 211.964844 266.46875 212.746094 266.46875 213.542969 L 266.46875 232.796875 C 266.46875 235.273438 264.457031 237.289062 261.980469 237.289062 L 258.835938 237.289062 C 258.019531 229.492188 251.410156 223.398438 243.402344 223.398438 C 235.394531 223.398438 228.785156 229.492188 227.964844 237.289062 L 219.410156 237.289062 Z M 259.085938 212.703125 C 259.375 212.199219 259.378906 211.578125 259.085938 211.074219 L 244.046875 184.878906 C 243.757812 184.375 243.214844 184.0625 242.632812 184.0625 L 226.984375 184.0625 C 226.082031 184.0625 225.351562 184.792969 225.351562 185.695312 L 225.351562 211.886719 C 225.351562 212.789062 226.082031 213.519531 226.984375 213.519531 L 257.671875 213.519531 C 258.253906 213.519531 258.792969 213.207031 259.085938 212.703125 Z M 259.085938 212.703125 " fill-opacity="1" fill-rule="evenodd"/><path fill="#556d6e" d="M 246.445312 238.917969 C 246.445312 239.320312 246.367188 239.710938 246.214844 240.082031 C 246.058594 240.457031 245.839844 240.785156 245.554688 241.070312 C 245.269531 241.355469 244.9375 241.574219 244.566406 241.730469 C 244.195312 241.882812 243.804688 241.960938 243.402344 241.960938 C 242.996094 241.960938 242.609375 241.882812 242.238281 241.730469 C 241.863281 241.574219 241.535156 241.355469 241.25 241.070312 C 240.964844 240.785156 240.742188 240.457031 240.589844 240.082031 C 240.433594 239.710938 240.359375 239.320312 240.359375 238.917969 C 240.359375 238.515625 240.433594 238.125 240.589844 237.753906 C 240.742188 237.378906 240.964844 237.050781 241.25 236.765625 C 241.535156 236.480469 241.863281 236.261719 242.238281 236.105469 C 242.609375 235.953125 242.996094 235.875 243.402344 235.875 C 243.804688 235.875 244.195312 235.953125 244.566406 236.105469 C 244.9375 236.261719 245.269531 236.480469 245.554688 236.765625 C 245.839844 237.050781 246.058594 237.378906 246.214844 237.753906 C 246.367188 238.125 246.445312 238.515625 246.445312 238.917969 Z M 246.445312 238.917969 " fill-opacity="1" fill-rule="nonzero"/><path fill="#556d6e" d="M 243.402344 226.660156 C 250.160156 226.660156 255.660156 232.160156 255.660156 238.917969 C 255.660156 245.675781 250.160156 251.175781 243.402344 251.175781 C 236.644531 251.175781 231.144531 245.675781 231.144531 238.917969 C 231.144531 232.160156 236.644531 226.660156 243.402344 226.660156 Z M 249.710938 238.917969 C 249.710938 235.441406 246.878906 232.609375 243.402344 232.609375 C 239.921875 232.609375 237.089844 235.441406 237.089844 238.917969 C 237.089844 242.394531 239.921875 245.226562 243.402344 245.226562 C 246.878906 245.226562 249.710938 242.394531 249.710938 238.917969 Z M 249.710938 238.917969 " fill-opacity="1" fill-rule="evenodd"/><path fill="#556d6e" d="M 148.035156 238.917969 C 148.035156 239.320312 147.957031 239.710938 147.804688 240.082031 C 147.648438 240.457031 147.429688 240.785156 147.144531 241.070312 C 146.859375 241.355469 146.527344 241.574219 146.15625 241.730469 C 145.78125 241.882812 145.394531 241.960938 144.992188 241.960938 C 144.585938 241.960938 144.199219 241.882812 143.824219 241.730469 C 143.453125 241.574219 143.125 241.355469 142.839844 241.070312 C 142.554688 240.785156 142.332031 240.457031 142.179688 240.082031 C 142.023438 239.710938 141.945312 239.320312 141.945312 238.917969 C 141.945312 238.515625 142.023438 238.125 142.179688 237.753906 C 142.332031 237.378906 142.554688 237.050781 142.839844 236.765625 C 143.125 236.480469 143.453125 236.261719 143.824219 236.105469 C 144.199219 235.953125 144.585938 235.875 144.992188 235.875 C 145.394531 235.875 145.78125 235.953125 146.15625 236.105469 C 146.527344 236.261719 146.859375 236.480469 147.144531 236.765625 C 147.429688 237.050781 147.648438 237.378906 147.804688 237.753906 C 147.957031 238.125 148.035156 238.515625 148.035156 238.917969 Z M 148.035156 238.917969 " fill-opacity="1" fill-rule="nonzero"/><path fill="#556d6e" d="M 117.914062 231.566406 L 131.324219 231.566406 C 130.386719 233.300781 129.769531 235.234375 129.554688 237.285156 L 122.402344 237.285156 C 119.929688 237.285156 117.914062 235.273438 117.914062 232.796875 Z M 117.914062 231.566406 " fill-opacity="1" fill-rule="evenodd"/><path fill="#556d6e" d="M 216.144531 231.566406 L 216.144531 237.285156 L 160.425781 237.285156 C 160.210938 235.234375 159.597656 233.300781 158.660156 231.566406 Z M 216.144531 231.566406 " fill-opacity="1" fill-rule="evenodd"/><path fill="#556d6e" d="M 154.320312 230.976562 C 156.144531 233.117188 157.25 235.890625 157.25 238.917969 C 157.25 245.675781 151.75 251.175781 144.992188 251.175781 C 138.234375 251.175781 132.734375 245.675781 132.734375 238.917969 C 132.734375 235.890625 133.835938 233.121094 135.664062 230.976562 C 137.910156 228.339844 141.261719 226.660156 144.992188 226.660156 C 148.722656 226.660156 152.070312 228.339844 154.320312 230.976562 Z M 151.300781 238.917969 C 151.300781 235.441406 148.46875 232.609375 144.992188 232.609375 C 141.511719 232.609375 138.683594 235.441406 138.683594 238.917969 C 138.683594 242.394531 141.511719 245.226562 144.992188 245.226562 C 148.46875 245.226562 151.300781 242.394531 151.300781 238.917969 Z M 151.300781 238.917969 " fill-opacity="1" fill-rule="evenodd"/><path fill="#556d6e" d="M 216.144531 228.300781 L 156.304688 228.300781 C 153.472656 225.285156 149.449219 223.394531 144.992188 223.394531 C 140.535156 223.394531 136.511719 225.285156 133.675781 228.300781 L 117.914062 228.300781 L 117.914062 165.933594 C 117.914062 163.457031 119.929688 161.445312 122.402344 161.445312 L 211.65625 161.445312 C 214.132812 161.445312 216.144531 163.457031 216.144531 165.933594 Z M 216.144531 228.300781 " fill-opacity="1" fill-rule="evenodd"/><path fill="#556d6e" d="M 239.460938 140.886719 C 243.835938 145.605469 246.109375 151.75 245.867188 158.179688 C 245.832031 159.058594 245.109375 159.75 244.234375 159.75 C 244.214844 159.75 244.195312 159.75 244.171875 159.75 C 243.273438 159.714844 242.570312 158.957031 242.601562 158.054688 C 243.039062 146.578125 234.054688 136.886719 222.578125 136.453125 C 221.675781 136.417969 220.972656 135.660156 221.007812 134.757812 C 221.042969 133.859375 221.800781 133.15625 222.699219 133.191406 C 229.132812 133.433594 235.085938 136.167969 239.460938 140.886719 Z M 239.460938 140.886719 " fill-opacity="1" fill-rule="evenodd"/><path fill="#556d6e" d="M 220.496094 141.242188 C 230.339844 141.617188 238.042969 149.925781 237.667969 159.769531 C 237.636719 160.648438 236.910156 161.339844 236.039062 161.339844 C 236.019531 161.339844 235.996094 161.339844 235.976562 161.339844 C 235.074219 161.304688 234.371094 160.546875 234.40625 159.644531 C 234.710938 151.601562 228.414062 144.8125 220.371094 144.507812 C 219.472656 144.472656 218.769531 143.714844 218.804688 142.8125 C 218.835938 141.910156 219.597656 141.207031 220.496094 141.242188 Z M 220.496094 141.242188 " fill-opacity="1" fill-rule="evenodd"/><path fill="#556d6e" d="M 226.378906 153.011719 C 228.492188 155.289062 229.589844 158.253906 229.46875 161.359375 C 229.4375 162.238281 228.710938 162.929688 227.839844 162.929688 C 227.820312 162.929688 227.796875 162.929688 227.777344 162.925781 C 226.875 162.894531 226.171875 162.136719 226.207031 161.234375 C 226.292969 159.003906 225.503906 156.871094 223.984375 155.230469 C 222.464844 153.59375 220.398438 152.644531 218.167969 152.558594 C 217.265625 152.527344 216.5625 151.769531 216.597656 150.867188 C 216.632812 149.964844 217.390625 149.265625 218.289062 149.296875 C 221.394531 149.414062 224.265625 150.734375 226.378906 153.011719 Z M 226.378906 153.011719 " fill-opacity="1" fill-rule="evenodd"/></svg>